<svg xmlns="http://www.w3.org/2000/svg" xmlns:xlink="http://www.w3.org/1999/xlink" width="215.86" height="396.5" viewBox="0 0 215.86 396.5"><defs><linearGradient id="a" x1="0.659" y1="0.103" x2="0.481" y2="1.842" gradientUnits="objectBoundingBox"><stop offset="0" stop-color="#0f98cf" stop-opacity="0.302"/><stop offset="0.213" stop-color="#7829f1" stop-opacity="0.302"/><stop offset="0.461" stop-color="#ee18d9" stop-opacity="0.302"/><stop offset="0.655" stop-color="#eb21ca" stop-opacity="0.302"/><stop offset="1" stop-color="#eb21c9" stop-opacity="0.302"/></linearGradient></defs><g transform="translate(-1661.246 -2021.86)"><path d="M1470.689,2190.632c-38.083,61.885-42.844,74.206-47.6,94.928-2.8,34.163,1.12,31.643,16.241,12.881s33.323-59.925,58.525-96.328,61.045-57.965,58.805-100.249-18.482-7.561-38.643,13.161S1470.689,2190.632,1470.689,2190.632Z" transform="translate(239 -60)" fill="url(#a)"/><path d="M1513.533,2210.234c-16.8,15.4-51.245,72.806-58.245,106.129-10.361,50.4,43.124-20.162,68.886-60.205s56.285-84.287,73.086-135.252-7.281-39.763-18.482-13.721-26.6,52.925-38.923,70.566S1530.334,2194.833,1513.533,2210.234Z" transform="translate(239 -60)" fill="url(#a)"/><path d="M1564.045,2217.363c-16.155,33.387-49.543,78.407-73.022,110.071s-12.924,33.818-9.047,43.727,6.3,44.319,23.264,28.649,21.379-47.128,44.589-91.331,26.872-43.745,48.25-85.479,48.9-55.826,37.265-81.459-33.388,5.17-47.389,29.51S1564.045,2217.363,1564.045,2217.363Z" transform="translate(239 -60)" fill="url(#a)"/><path d="M1498.131,2412.088c-6.548,1.555-27.838,44.177-28.218,44.8s-9.047,23.479,17.878,21.325,28.218-26.71,25.848-31.664S1504.679,2410.533,1498.131,2412.088Z" transform="translate(239 -60)" fill="rgba(237,25,214,0.3)"/></g></svg>