<svg xmlns="http://www.w3.org/2000/svg" width="464.875" height="464.875" viewBox="0 0 464.875 464.875"><path d="M233,.563C104.542.563.563,104.521.563,233,.563,361.458,104.521,465.438,233,465.438a233.086,233.086,0,0,0,126.911-37.7,22.526,22.526,0,0,0,5.2-33.152l-9.538-11.653a22.431,22.431,0,0,0-29.4-4.807A172.918,172.918,0,0,1,233,405.454c-95.091,0-172.454-77.362-172.454-172.454S137.909,60.546,233,60.546c93.855,0,172.454,54,172.454,149.96,0,36.352-19.769,74.738-54.52,78.441-16.26-.426-15.849-12.05-12.63-28.14L360.266,147.3a22.493,22.493,0,0,0-22.083-26.767H296.024a12.67,12.67,0,0,0-12.589,11.241l-.009.086c-13.775-16.778-37.91-20.409-56.208-20.409-69.9,0-129.182,58.329-129.182,141.956,0,61.205,34.477,99.226,89.976,99.226,25.291,0,53.769-14.656,70.285-35.928,8.924,31.964,38.064,31.963,66.273,31.963,102.074,0,140.867-67.118,140.867-138.16C465.438,82.715,362.362.563,233,.563ZM212.68,285.889c-20.853,0-33.807-14.643-33.807-38.213,0-42.17,28.848-68.165,54.951-68.165,20.893,0,33.367,14.285,33.367,38.212C267.192,259.956,235.442,285.889,212.68,285.889Z" transform="translate(-0.563 -0.563)" fill="rgba(255,255,255,0.15)"/></svg>