<svg xmlns="http://www.w3.org/2000/svg" width="78" height="66" viewBox="0 0 78 66"><g transform="translate(-801 -463)"><path d="M15.513,4.055l9.619,10.411L18.346,27.843l14.331-2.568L39.2,41.017,66.916,4.676ZM13.74,26.605l2.668-2.194L12.968,25.5l-.351-.5,1.422-1.38-1.865.753A18.992,18.992,0,0,0,5.947,55.9,18.857,18.857,0,0,1,3.48,46.544a19.465,19.465,0,0,1,12.031-17.9l.878-2.136-2.091.923-.588-.795.031-.031Zm12.168-5.493,4.456-7.865,26.2-6.137-30.659,14Z" transform="translate(806.8 470.5)" fill="rgba(15,152,207,0.26)"/><path d="M0,0H10V23H0Z" transform="translate(869 463)" fill="#f2f2f2"/><rect width="15" height="11" transform="translate(801 518)" fill="#f2f2f2"/></g></svg>