<svg xmlns="http://www.w3.org/2000/svg" width="66.916" height="51.844" viewBox="0 0 66.916 51.844"><path d="M15.513,4.055l9.619,10.411L18.346,27.843l14.331-2.568L39.2,41.017,66.916,4.676ZM13.74,26.605l2.668-2.194L12.968,25.5l-.351-.5,1.422-1.38-1.865.753A18.992,18.992,0,0,0,5.947,55.9,18.857,18.857,0,0,1,3.48,46.544a19.465,19.465,0,0,1,12.031-17.9l.878-2.136-2.091.923-.588-.795.031-.031Zm12.168-5.493,4.456-7.865,26.2-6.137-30.659,14Z" transform="translate(0 -4.055)" fill="rgba(15,152,207,0.26)"/></svg>