<svg xmlns="http://www.w3.org/2000/svg" xmlns:xlink="http://www.w3.org/1999/xlink" width="62.812" height="44.89" viewBox="0 0 62.812 44.89"><defs><filter id="a" x="0" y="0" width="62.812" height="44.89" filterUnits="userSpaceOnUse"><feOffset dx="1" dy="1" input="SourceAlpha"/><feGaussianBlur stdDeviation="1.5" result="b"/><feFlood flood-opacity="0.161"/><feComposite operator="in" in2="b"/><feComposite in="SourceGraphic"/></filter></defs><g transform="matrix(1, 0, 0, 1, 0, 0)" filter="url(#a)"><path d="M27.377,11.939a2.442,2.442,0,0,1,.019,3.439L16.05,26.761H59.283a2.43,2.43,0,0,1,0,4.86H16.05L27.414,43a2.46,2.46,0,0,1-.019,3.439,2.42,2.42,0,0,1-3.421-.019L8.574,30.911h0a2.729,2.729,0,0,1-.5-.766,2.319,2.319,0,0,1-.187-.935,2.436,2.436,0,0,1,.692-1.7l15.4-15.514A2.381,2.381,0,0,1,27.377,11.939Z" transform="translate(-4.38 -7.75)" fill="#4db0d8"/></g></svg>