<svg xmlns="http://www.w3.org/2000/svg" width="31.749" height="31.05" viewBox="0 0 31.749 31.05"><path d="M33.71,4.5H7.213A2.568,2.568,0,0,0,4.5,6.918V32.889A2.763,2.763,0,0,0,7.213,35.55H33.7a2.619,2.619,0,0,0,2.547-2.661V6.918A2.409,2.409,0,0,0,33.71,4.5ZM14.341,30.382H9.793V16.551h4.549ZM12.224,14.448h-.033a2.308,2.308,0,0,1-2.4-2.386,2.324,2.324,0,0,1,2.456-2.386,2.317,2.317,0,0,1,2.431,2.386A2.323,2.323,0,0,1,12.224,14.448Zm18.74,15.933H26.416V22.819c0-1.812-.662-3.049-2.307-3.049a2.483,2.483,0,0,0-2.332,1.642,2.934,2.934,0,0,0-.157,1.092v7.878H17.071V16.551h4.549v1.925a4.62,4.62,0,0,1,4.1-2.248c2.986,0,5.243,1.925,5.243,6.074v8.08Z" transform="translate(-4.5 -4.5)" fill="#0f98cf"/></svg>