<svg id="MC_Logo" data-name="MC Logo" xmlns="http://www.w3.org/2000/svg" width="133.792" height="68.463" viewBox="0 0 133.792 68.463">
  <path id="Path_3" data-name="Path 3" d="M512.22,225.724l-10.447,60.781h21.3l2.985-28.356L537.727,288l12.618-30.8,3.392,30.119,19.808-.814-7.191-60.781H548.309L539.491,249.2l-8.683-23.471Z" transform="translate(-501.774 -222.481)" fill="#fff"/>
  <path id="Path_12" data-name="Path 12" d="M582.712,221.165h58.044v68.463H582.177Z" transform="translate(-506.964 -221.165)" fill="#fff"/>
  <g id="Group_9" data-name="Group 9" transform="translate(28.064 2.47)">
    <path id="Path_4" data-name="Path 4" d="M631.859,243.6s-2.713-2.93-11.4-2.794a15.107,15.107,0,0,0-15.1,15.548c.161,7.734,6.628,13.391,14.979,13.793,9.5-.773,11.518-2.261,11.518-2.261l-1.085,17.773a38.084,38.084,0,0,1-13.16,1.221c-6.784-.678-32.623-6.105-32.08-30.526s19.056-32.7,33.437-32.426c7.479-.374,10.4,1.27,10.4,1.27Z" transform="translate(-533.832 -223.876)" fill="#0f98cf"/>
    <g id="Group_8" data-name="Group 8" transform="translate(0 2.091)">
      <path id="Path_5" data-name="Path 5" d="M603.968,226.171l-74.333,2.578,63.606,1.482h10.726Z" transform="translate(-528.87 -226.171)" fill="#0f98cf"/>
      <path id="Path_6" data-name="Path 6" d="M603.968,226.171l-74.333,2.578,63.606,1.482h10.726Z" transform="translate(-528.87 -226.171)" fill="#0f98cf"/>
      <path id="Path_7" data-name="Path 7" d="M587.711,236.645l-58.122,2.328,58.845,1.927Z" transform="translate(-528.865 -227.101)" fill="#0f98cf"/>
      <path id="Path_8" data-name="Path 8" d="M582.308,247.482c-.482.08-52.985,2.328-52.985,2.328L582.63,252.3Z" transform="translate(-528.842 -228.063)" fill="#0f98cf"/>
      <path id="Path_9" data-name="Path 9" d="M581.218,260.345l-52.423,2.007,54.189,2.007Z" transform="translate(-528.795 -229.205)" fill="#0f98cf"/>
      <path id="Path_10" data-name="Path 10" d="M584.444,274.882l-51.861,1.525,54.992,2.007Z" transform="translate(-529.131 -230.496)" fill="#0f98cf"/>
      <path id="Path_11" data-name="Path 11" d="M595.337,286.594l-62.225,1.049,70.541,2.737Z" transform="translate(-529.178 -231.536)" fill="#0f98cf"/>
    </g>
  </g>
</svg>
