<svg xmlns="http://www.w3.org/2000/svg" width="601.973" height="308.035" viewBox="0 0 601.973 308.035"><g opacity="0.05"><path d="M548.777,225.724l-47,273.475h95.838l13.43-127.581,52.5,134.3,56.771-138.569L735.57,502.861l89.124-3.663L792.341,225.724H711.153L671.474,331.329,632.407,225.724Z" transform="translate(-501.774 -211.135)" fill="#6e6e6e"/><path d="M584.586,221.165H845.744V529.2H582.177Z" transform="translate(-243.772 -221.165)" fill="#6e6e6e"/><g transform="translate(126.267 11.114)"><path d="M794,312.639s-12.209-13.183-51.276-12.573-69.024,31.786-67.941,69.954c.723,34.8,29.82,60.25,67.4,62.061C784.9,428.6,794,421.906,794,421.906l-4.883,79.967s-30.888,8.972-59.212,5.494C699.38,504.315,583.12,479.9,585.562,370.019S671.3,222.9,736.006,224.125c33.65-1.684,46.8,5.714,46.8,5.714Z" transform="translate(-352.946 -223.876)" fill="#c2c1c1"/><g transform="translate(0 9.407)"><path d="M864.081,226.171l-334.446,11.6L815.82,244.44h48.261Z" transform="translate(-526.191 -226.171)" fill="#c2c1c1"/><path d="M864.081,226.171l-334.446,11.6L815.82,244.44h48.261Z" transform="translate(-526.191 -226.171)" fill="#c2c1c1"/><path d="M791.1,236.645,529.588,247.12l264.763,8.669Z" transform="translate(-526.337 -193.702)" fill="#c2c1c1"/><path d="M767.719,247.482c-2.168.361-238.395,10.475-238.395,10.475l239.84,11.2Z" transform="translate(-527.156 -160.11)" fill="#c2c1c1"/><path d="M764.661,260.345l-235.866,9.03,243.813,9.03Z" transform="translate(-528.795 -120.238)" fill="#c2c1c1"/><path d="M765.921,274.882l-233.338,6.863,247.425,9.03Z" transform="translate(-517.051 -75.176)" fill="#c2c1c1"/><path d="M813.082,286.594l-279.969,4.719L850.5,303.625Z" transform="translate(-515.413 -38.871)" fill="#c2c1c1"/></g></g></g></svg>