<svg xmlns="http://www.w3.org/2000/svg" xmlns:xlink="http://www.w3.org/1999/xlink" width="291.546" height="360.344" viewBox="0 0 291.546 360.344"><defs><linearGradient id="a" x1="0.5" x2="0.5" y2="1" gradientUnits="objectBoundingBox"><stop offset="0" stop-color="#0f98cf" stop-opacity="0.949"/><stop offset="0.339" stop-color="#5a7697" stop-opacity="0.902"/><stop offset="0.552" stop-color="#8a6074" stop-opacity="0.678"/><stop offset="0.715" stop-color="#ae5059" stop-opacity="0.49"/><stop offset="1" stop-color="#ee332a" stop-opacity="0.678"/></linearGradient><linearGradient id="b" x1="0.5" x2="0.5" y2="1" gradientUnits="objectBoundingBox"><stop offset="0" stop-color="#f1756f" stop-opacity="0.49"/><stop offset="1" stop-color="#ee332a" stop-opacity="0.651"/></linearGradient></defs><g transform="translate(-1429.924 -1337.656)"><path d="M1306.623,1436.764s32.9-51.187,70.513-36.44,56.789,72.879,68.62,108.846c18.93,81.4,11.831,156.17,0,182.2-46.378,75.246-57.736-21.3-68.62-36.913-42.592-75.246-91.809-13.251-107.426,3.313-124.936,137.714-69.567-4.259-46.378-52.53S1306.623,1436.764,1306.623,1436.764Z" transform="translate(239 -60)" fill="url(#a)"/><path d="M1324.182,1665.62c-37.841-11.437,10.809,35.35-27.661,47.827s-33.271,30.152-11.437,31.191,69.4-23.8,80.4-37.327C1369.415,1699.72,1362.023,1677.056,1324.182,1665.62Z" transform="translate(239 -60)" fill="url(#b)"/><g transform="translate(10.531 -9.808)"><g transform="translate(1449.202 1374.595)"><path d="M1836.143,1651.453s-8.681-23.649-6.777-44.282c4.125-96.179,85.034-129.508,133.9-128.556s128.821,39.043,127.552,139.031c-2,36.951-21.056,63.006-21.056,63.006s-14.1-3.151-28.088-.534a37.2,37.2,0,0,0-10.669,2.327c-1.618,1.062-2.023.809-1.82,4.654.1,3.035-3.641,3.845-3.641,3.845s-7.534,1.113-11.832,5.21-5.134,7.261-10.23,10.841-11.747,3-11.747,3,8.791-9.183,11.047-15.643c1.361-4.9,12.525-7.86,13.342-29.418,3.031-5.719,3.425-13.216,3.425-13.216s-8.283,2.894-12.818,3.288c-4.733-.329-8.349-3.025-11.5-2.7s-5.653,3.222-9.6,3.091-4.01-3.025-9.4-2.762-12.555,3.748-28.595,2.1c-5.062-.46-14.725-6.905-23.8-19.6-4.6-2.367-3.55,2.236-9.072,1.973s-7.917-21.7-25.331-14.188c-5.206,4.011-4.638,9.968-4.249,12.123a19.684,19.684,0,0,0,5.745,8.83c1.082,1.333,1.769,3.143,3.022,4.58,2.2,2.521,4.472,3.159,6.819,5.577,1.2,1.243.119,2.31-.782,3.316-2.082,2.392-11.224,2.357-15.911-3.684s-3.121-7.8-12.378-8.815c-4.557.4-11.229,5.254-16.854,5.673A90.474,90.474,0,0,1,1836.143,1651.453Z" transform="translate(-1829.094 -1478.595)"/><path d="M2019.093,1741.032c2.684.856,4.3,3.781,9.007,3.508s11.256-6.314,6.966-11.259c-1.83,1.948-3.586,5.189-6.581,4.956s-7.176-4.574-10.557-4.255c-1.762.166-5.311.584-5.063,4.924C2013.483,1742.519,2017.809,1740.623,2019.093,1741.032Z" transform="translate(-1875.746 -1543.178)"/><g transform="translate(26.294 26.936)"><path d="M1907.792,1567.172c1.814.283-38.659-6.474-43.273,14.862s78.557,68.057,122.931,69.744c39.879,2.873,84.2-2.17,88.706-39.458-2.738-25.418-33.548-28.055-33.548-28.055s-2.292,10.683-10.843,13.817c-4.886.9,3.8-7.594,4.1-13.19,2.352-1.848-6.089-40.478-24.215-62.445-1.26-1.086-7.022-9.441-27.286-7.465-17.484,4.171-11.778,3.879-22.678,4.976-10.68-.146-8.047-4.025-27.579-3.147s-18.8,31.542-21.653,40.909c-3.292,18.589,43.307,22.54,54.426,27.37s1.756,8.928,14.338,21.443c4.709,6.58-20.782,2.514-43.526-6.513C1917.9,1592.166,1900.164,1580.6,1907.792,1567.172Z" transform="translate(-1864.335 -1514.682)" fill="#ee332a"/><path d="M1956.185,1548.483c4.069,4.07,26.058-3.334,30.56,4.634,2.9,7.058-20.431,2.208-26.058,9.613-3.679,3.681-6.753.52-10.345-4.547-6.363-3.9-5.714-9.873-4.415-11.995C1949.649,1541.208,1953.242,1546.361,1956.185,1548.483Z" transform="translate(-1884.833 -1522.138)"/><path d="M2039.413,1535.662c-3.063,1.3-9.423,1.932-16.582.866-8.491-2.5,15.483-3.331,3.463-9.293-4.428-.633-8.058-.833-9.922-.466-13.019,2.132,1.7-4.83,13.086-4S2050.468,1529.3,2039.413,1535.662Z" transform="translate(-1901.641 -1516.715)"/></g></g><text transform="translate(1460.469 1654.808)" font-size="75" font-family="NotoSans-Bold, Noto Sans" font-weight="700"><tspan x="0" y="0">red</tspan><tspan y="0" font-family="NotoSans, Noto Sans" font-weight="400">hat</tspan></text></g><text transform="translate(1471 1688)" font-size="35" font-family="NotoSans, Noto Sans"><tspan x="0" y="0">Training Camp</tspan></text></g></svg>