<svg xmlns="http://www.w3.org/2000/svg" width="32.957" height="34.904" viewBox="0 0 32.957 34.904"><g transform="translate(-345.731 -40.726)"><path d="M25.187,23.642l-13.208-13.2a2.484,2.484,0,0,1,0-3.523,2.515,2.515,0,0,1,3.533,0L30.477,21.875a2.49,2.49,0,0,1,.073,3.44L15.523,40.373A2.495,2.495,0,0,1,11.99,36.85Z" transform="translate(347.485 34.53)" fill="#4db0d8"/><path d="M25.187,23.642l-13.208-13.2a2.484,2.484,0,0,1,0-3.523,2.515,2.515,0,0,1,3.533,0L30.477,21.875a2.49,2.49,0,0,1,.073,3.44L15.523,40.373A2.495,2.495,0,0,1,11.99,36.85Z" transform="translate(334.485 34.53)" fill="#4db0d8"/></g></svg>